<?xml version="1.0" encoding="utf-8"?>
<!-- Generator: Adobe Illustrator 18.1.1, SVG Export Plug-In . SVG Version: 6.00 Build 0)  -->
<svg version="1.1" xmlns="http://www.w3.org/2000/svg" xmlns:xlink="http://www.w3.org/1999/xlink" x="0px" y="0px"
	 viewBox="0 0 350 300" enable-background="new 0 0 350 300" xml:space="preserve">
<g id="Photo">
</g>
<g id="Hat">
	<g>
		<g>
			<path fill="#F7E263" d="M191.603,68.715c4.316-20.622,14.802-37.875,33.934-47.815c1.143-0.594,0.132-2.32-1.009-1.727
				c-19.559,10.162-30.438,27.915-34.853,49.011C189.411,69.439,191.339,69.976,191.603,68.715L191.603,68.715z"/>
		</g>
	</g>
	<g>
		<g>
			<path fill="#F7E263" d="M278.464,98.676c8.457-10.845,22.483-15.789,35.857-12.479c1.249,0.309,1.782-1.619,0.532-1.929
				c-14.002-3.465-28.917,1.6-37.803,12.994C276.268,98.265,277.673,99.69,278.464,98.676L278.464,98.676z"/>
		</g>
	</g>
	<g>
		<g>
			<path fill="#F7E263" d="M107.158,72.566c-5.38-15.778-16.077-28.971-30.428-37.46c-1.11-0.657-2.118,1.071-1.009,1.727
				c13.899,8.222,24.296,20.976,29.509,36.265C105.643,74.309,107.575,73.789,107.158,72.566L107.158,72.566z"/>
		</g>
	</g>
	<g>
		<g>
			<path fill="#F7E263" d="M53.63,127.801c-14.551-1.94-28.944,2.336-40.177,11.756c-0.987,0.828,0.434,2.236,1.414,1.414
				c10.836-9.087,24.766-13.036,38.763-11.17C54.901,129.97,54.889,127.969,53.63,127.801L53.63,127.801z"/>
		</g>
	</g>
	<g>
		<g>
			<path fill="#F7E263" d="M124.475,237.612c-7.364,11.218-12.385,23.577-14.925,36.755c-0.242,1.258,1.685,1.796,1.929,0.532
				c2.508-13.011,7.451-25.199,14.724-36.277C126.91,237.543,125.179,236.54,124.475,237.612L124.475,237.612z"/>
		</g>
	</g>
	<g>
		<g>
			<path fill="#F7E263" d="M215.838,243.781c2.553,7.175,5.612,14.115,9.192,20.838c0.605,1.136,2.332,0.127,1.727-1.009
				c-3.499-6.57-6.494-13.346-8.99-20.36C217.338,242.045,215.405,242.564,215.838,243.781L215.838,243.781z"/>
		</g>
	</g>
	<g>
		<g>
			<path fill="#F7E263" d="M291.343,196.265c11.435,3.481,23.187,4.75,35.104,3.775c1.274-0.104,1.285-2.105,0-2
				c-11.738,0.96-23.302-0.273-34.572-3.704C290.641,193.961,290.113,195.891,291.343,196.265L291.343,196.265z"/>
		</g>
	</g>
	<g>
		<g>
			<path fill="#F7E263" d="M64.77,198.283c-12.107,2.789-19.969,12.691-26.987,22.239c-0.763,1.038,0.972,2.037,1.727,1.009
				c6.702-9.118,14.214-18.652,25.792-21.319C66.555,199.923,66.025,197.994,64.77,198.283L64.77,198.283z"/>
		</g>
	</g>
</g>
</svg>
